<mxfile host="app.diagrams.net" modified="2021-02-15T20:05:07.360Z" agent="5.0 (X11)" etag="njKTWf11ogLcqr3Eo2Kr" version="14.3.2" type="github">
  <diagram id="BGi7KF7WB8p2XfrL_VBf" name="Page-1">
    <mxGraphModel dx="1688" dy="1622" grid="1" gridSize="10" guides="1" tooltips="1" connect="1" arrows="1" fold="1" page="1" pageScale="1" pageWidth="850" pageHeight="1100" math="0" shadow="0">
      <root>
        <mxCell id="0" />
        <mxCell id="1" parent="0" />
        <mxCell id="tgQ2DO6xhTlcZixNRNRG-1" value="base_format" style="swimlane;fontStyle=1;align=center;verticalAlign=top;childLayout=stackLayout;horizontal=1;startSize=26;horizontalStack=0;resizeParent=1;resizeParentMax=0;resizeLast=0;collapsible=1;marginBottom=0;" parent="1" vertex="1">
          <mxGeometry x="180" y="360" width="300" height="144" as="geometry" />
        </mxCell>
        <mxCell id="tgQ2DO6xhTlcZixNRNRG-3" value="" style="line;strokeWidth=1;fillColor=none;align=left;verticalAlign=middle;spacingTop=-1;spacingLeft=3;spacingRight=3;rotatable=0;labelPosition=right;points=[];portConstraint=eastwest;" parent="tgQ2DO6xhTlcZixNRNRG-1" vertex="1">
          <mxGeometry y="26" width="300" height="8" as="geometry" />
        </mxCell>
        <mxCell id="tgQ2DO6xhTlcZixNRNRG-4" value="+ load_images(string): bool&#xa;+ next_frame(): void&#xa;+ prev_frame(): void&#xa;+ get_width(): unsigned&#xa;+ get_width(): unsigned&#xa;+ get_white_level(): int&#xa;+ develop(base_debayer, settings): std::vector&lt;float&gt;&#xa;&#xa;" style="text;strokeColor=none;fillColor=none;align=left;verticalAlign=top;spacingLeft=4;spacingRight=4;overflow=hidden;rotatable=0;points=[[0,0.5],[1,0.5]];portConstraint=eastwest;" parent="tgQ2DO6xhTlcZixNRNRG-1" vertex="1">
          <mxGeometry y="34" width="300" height="110" as="geometry" />
        </mxCell>
        <mxCell id="tgQ2DO6xhTlcZixNRNRG-5" value="dng_raw&#xa;" style="swimlane;fontStyle=1;align=center;verticalAlign=top;childLayout=stackLayout;horizontal=1;startSize=26;horizontalStack=0;resizeParent=1;resizeParentMax=0;resizeLast=0;collapsible=1;marginBottom=0;" parent="1" vertex="1">
          <mxGeometry x="180" y="600" width="300" height="198" as="geometry" />
        </mxCell>
        <mxCell id="tgQ2DO6xhTlcZixNRNRG-6" value="- frame_count: unsigned&#xa;- images: std::vector&lt;DNGImage&gt;&#xa;- custom_fields: std::vector&lt;FieldInfo&gt;" style="text;strokeColor=none;fillColor=none;align=left;verticalAlign=top;spacingLeft=4;spacingRight=4;overflow=hidden;rotatable=0;points=[[0,0.5],[1,0.5]];portConstraint=eastwest;" parent="tgQ2DO6xhTlcZixNRNRG-5" vertex="1">
          <mxGeometry y="26" width="300" height="54" as="geometry" />
        </mxCell>
        <mxCell id="tgQ2DO6xhTlcZixNRNRG-7" value="" style="line;strokeWidth=1;fillColor=none;align=left;verticalAlign=middle;spacingTop=-1;spacingLeft=3;spacingRight=3;rotatable=0;labelPosition=right;points=[];portConstraint=eastwest;" parent="tgQ2DO6xhTlcZixNRNRG-5" vertex="1">
          <mxGeometry y="80" width="300" height="8" as="geometry" />
        </mxCell>
        <mxCell id="tgQ2DO6xhTlcZixNRNRG-8" value="+ load_images(string): bool&#xa;+ next_frame(): void&#xa;+ prev_frame(): void&#xa;+ get_width(): unsigned&#xa;+ get_width(): unsigned&#xa;+ get_white_level(): int&#xa;+ develop(base_debayer, settings): std::vector&lt;float&gt;&#xa;&#xa;" style="text;strokeColor=none;fillColor=none;align=left;verticalAlign=top;spacingLeft=4;spacingRight=4;overflow=hidden;rotatable=0;points=[[0,0.5],[1,0.5]];portConstraint=eastwest;" parent="tgQ2DO6xhTlcZixNRNRG-5" vertex="1">
          <mxGeometry y="88" width="300" height="110" as="geometry" />
        </mxCell>
        <mxCell id="tgQ2DO6xhTlcZixNRNRG-9" value="" style="endArrow=block;endSize=16;endFill=0;html=1;entryX=0.5;entryY=1;entryDx=0;entryDy=0;exitX=0.5;exitY=0;exitDx=0;exitDy=0;" parent="1" source="tgQ2DO6xhTlcZixNRNRG-5" target="tgQ2DO6xhTlcZixNRNRG-1" edge="1">
          <mxGeometry width="160" relative="1" as="geometry">
            <mxPoint x="300" y="590" as="sourcePoint" />
            <mxPoint x="460" y="590" as="targetPoint" />
          </mxGeometry>
        </mxCell>
        <mxCell id="tgQ2DO6xhTlcZixNRNRG-14" value="base_debayer" style="swimlane;fontStyle=1;align=center;verticalAlign=top;childLayout=stackLayout;horizontal=1;startSize=26;horizontalStack=0;resizeParent=1;resizeParentMax=0;resizeLast=0;collapsible=1;marginBottom=0;" parent="1" vertex="1">
          <mxGeometry x="600" y="360" width="300" height="144" as="geometry" />
        </mxCell>
        <mxCell id="tgQ2DO6xhTlcZixNRNRG-15" value="" style="line;strokeWidth=1;fillColor=none;align=left;verticalAlign=middle;spacingTop=-1;spacingLeft=3;spacingRight=3;rotatable=0;labelPosition=right;points=[];portConstraint=eastwest;" parent="tgQ2DO6xhTlcZixNRNRG-14" vertex="1">
          <mxGeometry y="26" width="300" height="8" as="geometry" />
        </mxCell>
        <mxCell id="tgQ2DO6xhTlcZixNRNRG-16" value="+ debay(std::vector&lt;float&gt;, int, int, int[2])" style="text;strokeColor=none;fillColor=none;align=left;verticalAlign=top;spacingLeft=4;spacingRight=4;overflow=hidden;rotatable=0;points=[[0,0.5],[1,0.5]];portConstraint=eastwest;" parent="tgQ2DO6xhTlcZixNRNRG-14" vertex="1">
          <mxGeometry y="34" width="300" height="110" as="geometry" />
        </mxCell>
        <mxCell id="tgQ2DO6xhTlcZixNRNRG-18" value="" style="endArrow=diamondThin;endFill=0;endSize=24;html=1;exitX=0;exitY=0.5;exitDx=0;exitDy=0;entryX=1;entryY=0.5;entryDx=0;entryDy=0;" parent="1" source="tgQ2DO6xhTlcZixNRNRG-16" target="tgQ2DO6xhTlcZixNRNRG-4" edge="1">
          <mxGeometry width="160" relative="1" as="geometry">
            <mxPoint x="540" y="490" as="sourcePoint" />
            <mxPoint x="700" y="490" as="targetPoint" />
          </mxGeometry>
        </mxCell>
        <mxCell id="tgQ2DO6xhTlcZixNRNRG-20" value="bilinear_debayer&#xa;" style="swimlane;fontStyle=1;align=center;verticalAlign=top;childLayout=stackLayout;horizontal=1;startSize=26;horizontalStack=0;resizeParent=1;resizeParentMax=0;resizeLast=0;collapsible=1;marginBottom=0;" parent="1" vertex="1">
          <mxGeometry x="600" y="530" width="300" height="144" as="geometry" />
        </mxCell>
        <mxCell id="tgQ2DO6xhTlcZixNRNRG-21" value="" style="line;strokeWidth=1;fillColor=none;align=left;verticalAlign=middle;spacingTop=-1;spacingLeft=3;spacingRight=3;rotatable=0;labelPosition=right;points=[];portConstraint=eastwest;" parent="tgQ2DO6xhTlcZixNRNRG-20" vertex="1">
          <mxGeometry y="26" width="300" height="8" as="geometry" />
        </mxCell>
        <mxCell id="tgQ2DO6xhTlcZixNRNRG-22" value="+ debay(std::vector&lt;float&gt;, int, int, int[2])" style="text;strokeColor=none;fillColor=none;align=left;verticalAlign=top;spacingLeft=4;spacingRight=4;overflow=hidden;rotatable=0;points=[[0,0.5],[1,0.5]];portConstraint=eastwest;" parent="tgQ2DO6xhTlcZixNRNRG-20" vertex="1">
          <mxGeometry y="34" width="300" height="110" as="geometry" />
        </mxCell>
        <mxCell id="tgQ2DO6xhTlcZixNRNRG-23" value="colored_bayer&#xa;" style="swimlane;fontStyle=1;align=center;verticalAlign=top;childLayout=stackLayout;horizontal=1;startSize=26;horizontalStack=0;resizeParent=1;resizeParentMax=0;resizeLast=0;collapsible=1;marginBottom=0;" parent="1" vertex="1">
          <mxGeometry x="600" y="690" width="300" height="144" as="geometry" />
        </mxCell>
        <mxCell id="tgQ2DO6xhTlcZixNRNRG-24" value="" style="line;strokeWidth=1;fillColor=none;align=left;verticalAlign=middle;spacingTop=-1;spacingLeft=3;spacingRight=3;rotatable=0;labelPosition=right;points=[];portConstraint=eastwest;" parent="tgQ2DO6xhTlcZixNRNRG-23" vertex="1">
          <mxGeometry y="26" width="300" height="8" as="geometry" />
        </mxCell>
        <mxCell id="tgQ2DO6xhTlcZixNRNRG-25" value="+ debay(std::vector&lt;float&gt;, int, int, int[2])" style="text;strokeColor=none;fillColor=none;align=left;verticalAlign=top;spacingLeft=4;spacingRight=4;overflow=hidden;rotatable=0;points=[[0,0.5],[1,0.5]];portConstraint=eastwest;" parent="tgQ2DO6xhTlcZixNRNRG-23" vertex="1">
          <mxGeometry y="34" width="300" height="110" as="geometry" />
        </mxCell>
        <mxCell id="tgQ2DO6xhTlcZixNRNRG-26" value="mhc_debayer" style="swimlane;fontStyle=1;align=center;verticalAlign=top;childLayout=stackLayout;horizontal=1;startSize=26;horizontalStack=0;resizeParent=1;resizeParentMax=0;resizeLast=0;collapsible=1;marginBottom=0;" parent="1" vertex="1">
          <mxGeometry x="600" y="850" width="300" height="144" as="geometry" />
        </mxCell>
        <mxCell id="tgQ2DO6xhTlcZixNRNRG-27" value="" style="line;strokeWidth=1;fillColor=none;align=left;verticalAlign=middle;spacingTop=-1;spacingLeft=3;spacingRight=3;rotatable=0;labelPosition=right;points=[];portConstraint=eastwest;" parent="tgQ2DO6xhTlcZixNRNRG-26" vertex="1">
          <mxGeometry y="26" width="300" height="8" as="geometry" />
        </mxCell>
        <mxCell id="tgQ2DO6xhTlcZixNRNRG-28" value="+ debay(std::vector&lt;float&gt;, int, int, int[2])" style="text;strokeColor=none;fillColor=none;align=left;verticalAlign=top;spacingLeft=4;spacingRight=4;overflow=hidden;rotatable=0;points=[[0,0.5],[1,0.5]];portConstraint=eastwest;" parent="tgQ2DO6xhTlcZixNRNRG-26" vertex="1">
          <mxGeometry y="34" width="300" height="110" as="geometry" />
        </mxCell>
        <mxCell id="tgQ2DO6xhTlcZixNRNRG-29" value="" style="endArrow=block;endSize=16;endFill=0;html=1;exitX=1;exitY=0.5;exitDx=0;exitDy=0;entryX=1;entryY=0.5;entryDx=0;entryDy=0;" parent="1" source="tgQ2DO6xhTlcZixNRNRG-28" target="tgQ2DO6xhTlcZixNRNRG-16" edge="1">
          <mxGeometry width="160" relative="1" as="geometry">
            <mxPoint x="860" y="670" as="sourcePoint" />
            <mxPoint x="1020" y="670" as="targetPoint" />
            <Array as="points">
              <mxPoint x="1000" y="939" />
              <mxPoint x="1000" y="649" />
              <mxPoint x="1000" y="449" />
            </Array>
          </mxGeometry>
        </mxCell>
        <mxCell id="tgQ2DO6xhTlcZixNRNRG-30" value="" style="endArrow=block;endSize=16;endFill=0;html=1;exitX=1;exitY=0.5;exitDx=0;exitDy=0;entryX=1;entryY=0.5;entryDx=0;entryDy=0;" parent="1" source="tgQ2DO6xhTlcZixNRNRG-22" target="tgQ2DO6xhTlcZixNRNRG-16" edge="1">
          <mxGeometry width="160" relative="1" as="geometry">
            <mxPoint x="1050" y="659" as="sourcePoint" />
            <mxPoint x="930" y="459" as="targetPoint" />
            <Array as="points">
              <mxPoint x="1000" y="619" />
              <mxPoint x="1000" y="449" />
            </Array>
          </mxGeometry>
        </mxCell>
        <mxCell id="tgQ2DO6xhTlcZixNRNRG-31" value="" style="endArrow=block;endSize=16;endFill=0;html=1;exitX=1;exitY=0.5;exitDx=0;exitDy=0;entryX=1;entryY=0.5;entryDx=0;entryDy=0;" parent="1" source="tgQ2DO6xhTlcZixNRNRG-25" target="tgQ2DO6xhTlcZixNRNRG-16" edge="1">
          <mxGeometry width="160" relative="1" as="geometry">
            <mxPoint x="1060" y="669" as="sourcePoint" />
            <mxPoint x="940" y="469" as="targetPoint" />
            <Array as="points">
              <mxPoint x="1000" y="779" />
              <mxPoint x="1000" y="449" />
            </Array>
          </mxGeometry>
        </mxCell>
        <mxCell id="tgQ2DO6xhTlcZixNRNRG-35" value="" style="endArrow=diamondThin;endFill=0;endSize=24;html=1;exitX=0.5;exitY=1;exitDx=0;exitDy=0;" parent="1" source="tgQ2DO6xhTlcZixNRNRG-37" target="tgQ2DO6xhTlcZixNRNRG-1" edge="1">
          <mxGeometry width="160" relative="1" as="geometry">
            <mxPoint x="120" y="380" as="sourcePoint" />
            <mxPoint x="480" y="459" as="targetPoint" />
          </mxGeometry>
        </mxCell>
        <mxCell id="tgQ2DO6xhTlcZixNRNRG-37" value="settings&#xa;" style="swimlane;fontStyle=1;align=center;verticalAlign=top;childLayout=stackLayout;horizontal=1;startSize=26;horizontalStack=0;resizeParent=1;resizeParentMax=0;resizeLast=0;collapsible=1;marginBottom=0;" parent="1" vertex="1">
          <mxGeometry x="180" y="160" width="300" height="128" as="geometry" />
        </mxCell>
        <mxCell id="tgQ2DO6xhTlcZixNRNRG-38" value="+ intensity: double&#xa;+ cfa_offset: int[2]&#xa;+ raw_wb: double[3]&#xa;+ saturation: double&#xa;+ brightness: double&#xa;+ contrast: double&#xa;&#xa;&#xa;&#xa;" style="text;strokeColor=none;fillColor=none;align=left;verticalAlign=top;spacingLeft=4;spacingRight=4;overflow=hidden;rotatable=0;points=[[0,0.5],[1,0.5]];portConstraint=eastwest;" parent="tgQ2DO6xhTlcZixNRNRG-37" vertex="1">
          <mxGeometry y="26" width="300" height="94" as="geometry" />
        </mxCell>
        <mxCell id="tgQ2DO6xhTlcZixNRNRG-39" value="" style="line;strokeWidth=1;fillColor=none;align=left;verticalAlign=middle;spacingTop=-1;spacingLeft=3;spacingRight=3;rotatable=0;labelPosition=right;points=[];portConstraint=eastwest;" parent="tgQ2DO6xhTlcZixNRNRG-37" vertex="1">
          <mxGeometry y="120" width="300" height="8" as="geometry" />
        </mxCell>
      </root>
    </mxGraphModel>
  </diagram>
</mxfile>
